<?xml version="1.0" encoding="utf-8"?>
<!-- Generator: Adobe Illustrator 25.1.0, SVG Export Plug-In . SVG Version: 6.00 Build 0)  -->
<svg version="1.1" id="Layer_1" xmlns="http://www.w3.org/2000/svg" xmlns:xlink="http://www.w3.org/1999/xlink" x="0px" y="0px"
	 viewBox="0 0 600 222.6" style="enable-background:new 0 0 600 222.6;" xml:space="preserve">
<style type="text/css">
	.st0{fill:#FF6A14;}
	.st1{fill:#FF6C0E;}
	.st2{fill:#FFFFFF;}
	.st3{fill:#FF4713;}
	.st4{fill:none;stroke:#000000;stroke-width:63;stroke-miterlimit:10;}
</style>
<g>
	<path d="M308.1,47.8c-13.8,0-26.1,6.7-33.5,18.5l-0.3,0.5h-2.2l0.6-16h-27.4v111.9h30.9V96.1c0-12.1,8.5-20.5,20.7-20.5
		c12.7,0,19.1,7.2,19.1,21.3v65.6H347V87.5C347,62.6,332.5,47.8,308.1,47.8z M569.1,49.5v66.4c0,13.2-7.4,20.7-20.3,20.7
		c-12.7,0-19.7-7.3-19.7-20.5V49.5h-30.9v66.7c0,29.2,19.9,48.1,50.6,48.1c31.1,0,51.2-18.9,51.2-48.1V49.5H569.1z M196.2,70.8
		l-1.8-2.9c-8-12.6-21.3-19.9-36.6-19.9c-24.4,0-49.6,22.2-49.6,59.2c0,28.1,19,58.4,49.6,58.4c15.4,0,28.7-7.2,36.6-19.9l1.8-2.9
		v20h29.1V50.9h-29.1V70.8z M167.5,136.1c-15.2,0-26.1-12.3-26.1-29.2c0-16.7,11.2-29.2,26.1-29.2c14.8,0,25.5,12.3,25.5,29.2
		S182.3,136.1,167.5,136.1z"/>
	<path d="M73.4,163.2l-40.8-54.5v54.5H0V0h32.5v102l40.8-51.4h38.4l-43.9,53.6l45.3,58.9H73.4z"/>
	<g>
		<path d="M477.7,191.8v-47c-20.5,27.6-53.3,45.5-90.3,45.5c-3.3,0-6.5-0.2-9.8-0.4v33.1c3.2,0.2,6.5,0.3,9.8,0.3
			C421.5,223.2,452.9,211.5,477.7,191.8z"/>
		<g>
			<g>
				<path d="M482.6,49.3l-49.7,0c-4.5-1-9.1-1.5-13.8-1.5c-34,0-58.7,24.7-58.7,58.7s24.7,58.7,58.7,58.7c34,0,58.7-24.7,58.7-58.7
					c0-9.7-1.9-18.7-5.8-26.8l-0.7-1.4h11.2V49.3z M419.1,137.6c-7.2,0-14-2.9-19-8.1c-5.5-5.7-8.4-13.7-8.4-23s2.9-17.2,8.4-23
					c5-5.3,11.8-8.1,19-8.1c4,0,8.1,1,11.8,2.8l0.5,0.3c9.7,5.1,15.3,15.4,15.3,28.1C446.7,126.7,432.5,137.6,419.1,137.6z"/>
			</g>
			<g>
				<path class="st1" d="M446.2,99.7c-0.1-0.3-18.4-7-21.4-19.8c-0.7-3-2.2-15.9-2.6-18.7c-0.4-3-3.3-13.7-3.8-15.2
					c0-0.6,0.7-2.2,0.8-2.7c1.1-3.6,6.9-4.8,9.5-11.1c3.7-8.9,4.8-28.6,3.6-31.4c-6.6,2.7-11.3,5.7-15.1,9.1
					c-5.6,4.9-10,17.6-10,17.6l-1.7-0.9c0,0-0.4-9.2-3.9-14.8c-3.4-5.6-14-12.5-15.5-11.2c-1.5,1.3-0.9,16.7-0.2,21.7
					c0.6,4.9,3.2,6.4,3.2,6.4s-12.2,1.9-16.7,8.6c-2.1,3-3,7.3-3,7.3l-20.8,14.8c0,0-1.1,3.5,0.2,7.1c1.3,3.6,6,6.2,6,6.2l9.2,0.9
					c0,0,14.3,0.7,20.8,0.7c10,0.1,7.1,14,7.2,15.9c0,0-0.6,9.1-0.6,11.4c0,0.9,0,1.9,0.1,2.8c0,0.3,0.2,2.4,0.3,3.1
					c0.2,8.8,3.1,16.3,8.4,21.8c4.9,5.1,11.3,7.9,18.2,8.1c0.6,0.3,0.7,0,1.1,0c7.2,0,14-3.3,19.1-8.5c5.5-5.7,8.4-13.7,8.4-23
					C446.9,103.9,446.5,101.7,446.2,99.7z"/>
			</g>
		</g>
	</g>
</g>
</svg>
